<svg width="22" height="20" viewBox="0 0 22 20" fill="none" xmlns="http://www.w3.org/2000/svg">
<path d="M11.313 0C5.54791 0 0.878418 4.59124 0.878418 10.2538C0.878418 14.785 3.86794 18.6275 8.01309 19.9823C8.53482 20.0788 8.72613 19.7614 8.72613 19.4893C8.72613 19.2458 8.71743 18.6006 8.71308 17.7458C5.81052 18.3641 5.19835 16.3702 5.19835 16.3702C4.72358 15.1867 4.0375 14.8702 4.0375 14.8702C3.0923 14.2346 4.11054 14.2476 4.11054 14.2476C5.15835 14.3189 5.70878 15.3041 5.70878 15.3041C6.6392 16.8719 8.15135 16.4189 8.74787 16.1572C8.84178 15.4937 9.11047 15.0424 9.40873 14.7859C7.09137 14.5293 4.65575 13.6476 4.65575 9.71899C4.65575 8.59987 5.06009 7.6851 5.72965 6.96772C5.61226 6.7086 5.26009 5.666 5.82095 4.25385C5.82095 4.25385 6.69485 3.97907 8.69047 5.30514C9.52524 5.07732 10.4122 4.96427 11.2991 4.95906C12.1861 4.96427 13.073 5.07732 13.9078 5.30514C15.8904 3.97907 16.7643 4.25385 16.7643 4.25385C17.3251 5.666 16.973 6.7086 16.8686 6.96772C17.5338 7.6851 17.9382 8.59987 17.9382 9.71899C17.9382 13.6581 15.4991 14.525 13.1774 14.7772C13.5426 15.085 13.8817 15.7137 13.8817 16.6745C13.8817 18.0467 13.8687 19.1493 13.8687 19.4823C13.8687 19.751 14.0513 20.0719 14.586 19.9693C18.7608 18.6232 21.7477 14.778 21.7477 10.2538C21.7477 4.59124 17.0756 0 11.313 0Z" fill="#252525"/>
</svg>
