<svg width="70" height="24" viewBox="0 0 70 20" fill="none" xmlns="http://www.w3.org/2000/svg">
<path fill-rule="evenodd" clip-rule="evenodd" d="M29.9941 1.97047C29.9941 0.881528 30.8497 0 31.9387 0C33.0276 0 33.8832 0.881528 33.8832 1.97047C33.8832 3.05942 33.0276 3.94095 31.9387 3.94095C30.8497 3.94095 29.9941 3.05942 29.9941 1.97047ZM30.5645 5.80771L33.261 5.80771V19.1862H30.5645L30.5645 5.80771ZM18.7569 7.75226C19.794 6.42997 21.3237 5.65215 22.9571 5.65215C25.4721 5.65215 27.5203 7.77819 27.5203 11.3043L27.5203 19.1862H24.8239L24.8239 11.408C24.8239 9.72274 23.4757 8.32266 21.7904 8.32266C20.1051 8.32266 18.7569 9.72274 18.7569 11.408L18.7569 19.1862H16.0345L16.0345 5.80771L18.7569 5.80771V7.75226ZM36.9694 5.80771V8.29674H44.592V10.7598H41.74C37.9287 10.7598 35.8545 12.6007 35.8545 15.2971C35.8545 17.7083 37.825 19.3418 40.2881 19.3418C41.8437 19.3418 43.4771 18.7454 44.592 17.2935V19.1862H47.2625V5.80771L36.9694 5.80771ZM41.0659 17.0861C39.6658 17.0861 38.6028 16.2823 38.6028 15.1415C38.6028 13.9748 39.3806 12.8859 42.103 12.8859H44.592C44.592 15.8157 42.8549 17.0861 41.0659 17.0861ZM61.5477 15.0267C62.0662 14.1452 66.5776 6.62628 67.0183 5.92624L70 5.92624V19.3047H67.3036V9.76348C67.2849 9.76348 64.6356 14.1703 62.9207 17.0228C62.2461 18.1449 61.7161 19.0266 61.5477 19.3047H58.8513V9.73755C58.8253 9.73755 53.7954 18.1121 53.0954 19.3047H50.373V5.92624H53.0954L53.0695 14.223L53.0954 15.0526C53.5621 14.2489 58.5401 5.92624 58.5661 5.92624H61.5218C61.5477 5.92624 61.5477 15.0008 61.5477 15.0267ZM8.08932 3.22233C7.72634 3.06677 7.20779 2.91121 6.55961 2.91121C5.6003 2.91121 4.7447 3.42975 4.7447 4.57055V5.81506H10.1631L12.8595 5.81506L12.8595 19.1936H10.1631V8.17445L4.7447 8.17445L4.7447 19.1936H2.04826L2.04826 8.17445H0L0 5.81506H2.04826L2.04826 4.5187C2.04826 2.08153 3.73353 0.370332 6.01513 0.370332C6.87073 0.370332 7.64855 0.577749 8.08932 0.785168V3.22233Z" fill="#4D00E5"/>
</svg>
