<svg width="21" height="20" viewBox="0 0 21 20" fill="none" xmlns="http://www.w3.org/2000/svg">
<path d="M19.1587 0H1.36705C0.757816 0 0.263184 0.493644 0.263184 1.10387V18.8955C0.263184 19.5057 0.757816 20 1.36705 20H10.9455V12.2548H8.33932V9.23599H10.9455V7.00981C10.9455 4.42699 12.5226 3.01982 14.8272 3.01982C15.932 3.01982 16.8795 3.10248 17.1558 3.13838V5.83811L15.5573 5.83877C14.3042 5.83877 14.0625 6.4345 14.0625 7.30817V9.235H17.052L16.6611 12.2535H14.0622V19.999H19.1583C19.7682 19.999 20.2632 19.504 20.2632 18.8955V1.10321C20.2629 0.493644 19.7685 0 19.1587 0Z" fill="#252525"/>
</svg>
