<svg width="21" height="20" viewBox="0 0 21 20" fill="none" xmlns="http://www.w3.org/2000/svg">
<path d="M14.4298 0H6.09652C2.87985 0 0.263184 2.61667 0.263184 5.83333V14.1667C0.263184 17.3833 2.87985 20 6.09652 20H14.4298C17.6465 20 20.2632 17.3833 20.2632 14.1667V5.83333C20.2632 2.61667 17.6465 0 14.4298 0ZM18.5965 14.1667C18.5965 16.4642 16.7274 18.3333 14.4298 18.3333H6.09652C3.79902 18.3333 1.92985 16.4642 1.92985 14.1667V5.83333C1.92985 3.53583 3.79902 1.66667 6.09652 1.66667H14.4298C16.7274 1.66667 18.5965 3.53583 18.5965 5.83333V14.1667Z" fill="#252525"/>
<path d="M10.2632 5.41669C7.73609 5.41669 5.67984 7.47294 5.67984 10C5.67984 12.5271 7.73609 14.5834 10.2632 14.5834C12.7903 14.5834 14.8465 12.5271 14.8465 10C14.8465 7.47294 12.7903 5.41669 10.2632 5.41669ZM10.2632 12.9167C8.65484 12.9167 7.34651 11.6084 7.34651 10C7.34651 8.39169 8.65484 7.08335 10.2632 7.08335C11.8715 7.08335 13.1798 8.39169 13.1798 10C13.1798 11.6084 11.8715 12.9167 10.2632 12.9167Z" fill="#252525"/>
<path d="M15.6798 3.33331C14.9907 3.33331 14.4298 3.89415 14.4298 4.58331C14.4298 5.27248 14.9907 5.83331 15.6798 5.83331C16.369 5.83331 16.9298 5.27248 16.9298 4.58331C16.9298 3.89415 16.369 3.33331 15.6798 3.33331Z" fill="#252525"/>
</svg>
